# xmcd
#
# Track frame offsets:
#	183
#	17965
#	35740
#
# Disc length: 579 seconds
#
# Revision: 1
# Processed by: cddbd v1.5.1PL0 Copyright (c) Steve Scherf et al.
# Submitted via: dBpowerAMP V4.0
#
DISCID=21024103
DTITLE=Selena - CD Single
DYEAR=1989
DGENRE=Funk
TTITLE0=And my heart beats
TTITLE1=And my heart beats (instr)
TTITLE2=It must be love
EXTD=
EXTT0=
EXTT1=
EXTT2=
PLAYORDER=
